<svg width="24" height="24" viewBox="0 0 24 22" fill="none" xmlns="http://www.w3.org/2000/svg">
<rect x="0.75" y="14.125" width="13.75" height="4.375" rx="2.1875" stroke="black"/>
<rect x="3.25" y="0.6875" width="13.75" height="4.375" rx="2.1875" stroke="black"/>
<rect x="0.75" y="5.0625" width="13.75" height="4.375" rx="2.1875" stroke="black"/>
<rect x="2.625" y="9.4375" width="13.75" height="4.375" rx="2.1875" stroke="black"/>
<ellipse cx="15.901" cy="13.6584" rx="7.33848" ry="7.34589" fill="#375AFF" stroke="black"/>
<path d="M15.9393 18.4743C15.7539 18.4743 15.5972 18.4089 15.4693 18.2781C15.3413 18.1473 15.2774 17.9838 15.2774 17.7876V17.0616L15.5652 17.3265C15.1367 17.3069 14.7657 17.2513 14.4524 17.1597C14.139 17.0682 13.8832 16.9766 13.6849 16.885C13.5186 16.8065 13.4003 16.6954 13.3299 16.5515C13.266 16.4076 13.2404 16.2604 13.2532 16.11C13.2724 15.9596 13.3267 15.8222 13.4163 15.698C13.5058 15.5737 13.6209 15.492 13.7616 15.4527C13.9087 15.4069 14.0782 15.4265 14.2701 15.5116C14.398 15.5835 14.5899 15.6587 14.8457 15.7372C15.1079 15.8092 15.4309 15.8451 15.8146 15.8451C16.0832 15.8451 16.2943 15.819 16.4478 15.7666C16.6077 15.7143 16.7196 15.6456 16.7835 15.5606C16.8539 15.4691 16.8891 15.371 16.8891 15.2663C16.8891 15.1682 16.8635 15.0865 16.8123 15.0211C16.7675 14.9491 16.6908 14.887 16.5821 14.8347C16.4734 14.7758 16.3231 14.7235 16.1312 14.6777L15.0471 14.4422C14.4524 14.3049 14.0079 14.076 13.7137 13.7555C13.4259 13.4285 13.282 13.0067 13.282 12.49C13.282 12.0976 13.3747 11.7476 13.5602 11.4403C13.7521 11.1263 14.0175 10.8713 14.3564 10.675C14.7018 10.4788 15.1047 10.3546 15.5652 10.3022L15.2774 10.469V9.81173C15.2774 9.61552 15.3413 9.45201 15.4693 9.32121C15.5972 9.1904 15.7539 9.125 15.9393 9.125C16.1312 9.125 16.2911 9.1904 16.419 9.32121C16.5469 9.45201 16.6109 9.61552 16.6109 9.81173V10.469L16.3231 10.2826C16.5661 10.2892 16.8283 10.3317 17.1097 10.4102C17.3911 10.4821 17.6373 10.5835 17.8484 10.7143C17.9955 10.7928 18.0978 10.9007 18.1554 11.038C18.2193 11.1754 18.2417 11.316 18.2225 11.4599C18.2097 11.5972 18.1586 11.7215 18.069 11.8327C17.9859 11.9439 17.8708 12.0191 17.7237 12.0583C17.583 12.091 17.4135 12.0649 17.2152 11.9798C17.0681 11.9144 16.9019 11.8621 16.7164 11.8229C16.5373 11.7771 16.3071 11.7542 16.0257 11.7542C15.6867 11.7542 15.4245 11.8163 15.239 11.9406C15.0599 12.0649 14.9704 12.2251 14.9704 12.4213C14.9704 12.5521 15.0216 12.6633 15.1239 12.7548C15.2326 12.8399 15.4277 12.9151 15.7091 12.9805L16.8027 13.2257C17.4103 13.3631 17.858 13.592 18.1458 13.9125C18.44 14.2264 18.5871 14.6352 18.5871 15.1388C18.5871 15.5312 18.4943 15.8778 18.3089 16.1787C18.1234 16.4795 17.8644 16.7248 17.5318 16.9145C17.2056 17.1041 16.8251 17.2284 16.3902 17.2873L16.6109 17.0518V17.7876C16.6109 17.9838 16.5469 18.1473 16.419 18.2781C16.2975 18.4089 16.1376 18.4743 15.9393 18.4743Z" fill="white"/>
</svg>
