<svg width="24" height="24" viewBox="0 0 20 20" fill="none" xmlns="http://www.w3.org/2000/svg">
<path d="M9.20257 2.73314C7.58025 2.75146 5.99979 3.25044 4.66105 4.16698C3.32232 5.08353 2.28543 6.37647 1.68152 7.88231C1.07761 9.38814 0.933787 11.0392 1.26825 12.6268C1.60271 14.2144 2.40044 15.6671 3.56054 16.8013C4.72065 17.9355 6.19103 18.7003 7.78576 18.9988C9.38048 19.2973 11.0279 19.1163 12.5197 18.4785C14.0116 17.8408 15.2808 16.775 16.1668 15.4159C17.0529 14.0568 17.5161 12.4655 17.4978 10.8431L9.29518 10.9357L9.20257 2.73314Z" fill="white" stroke="black"/>
<path d="M11.0776 1.09252C12.1547 1.08036 13.2238 1.28048 14.2236 1.68147C15.2235 2.08245 16.1345 2.67644 16.9048 3.42952C17.6751 4.18261 18.2895 5.08003 18.713 6.07056C19.1364 7.0611 19.3606 8.12533 19.3728 9.20251L11.1702 9.29512L11.0776 1.09252Z" fill="#FFDE71" stroke="#FFDE71"/>
</svg>
