<svg width="24" height="24" viewBox="0 0 24 24" fill="none" xmlns="http://www.w3.org/2000/svg">
<path d="M12.25 1L3.5 9.4999V21.6426C3.5 22.3132 4.05964 22.8569 4.75 22.8569H8.5C9.19036 22.8569 9.75 22.3132 9.75 21.6426V16.7855C9.75 16.1149 10.3096 15.5713 11 15.5713H13.5C14.1904 15.5713 14.75 16.1149 14.75 16.7855V21.6426C14.75 22.3132 15.3096 22.8569 16 22.8569H19.75C20.4404 22.8569 21 22.3132 21 21.6426V9.4999L12.25 1Z" fill="#375AFF"/>
<path d="M1 11.9284L3.5 9.4999M3.5 9.4999L12.25 1L21 9.4999M3.5 9.4999V21.6426C3.5 22.3132 4.05964 22.8569 4.75 22.8569H8.5M21 9.4999L23.5 11.9284M21 9.4999V21.6426C21 22.3132 20.4404 22.8569 19.75 22.8569H16M8.5 22.8569C9.19036 22.8569 9.75 22.3132 9.75 21.6426V16.7855C9.75 16.1149 10.3096 15.5713 11 15.5713H13.5C14.1904 15.5713 14.75 16.1149 14.75 16.7855V21.6426C14.75 22.3132 15.3096 22.8569 16 22.8569M8.5 22.8569H16" stroke="black" stroke-linecap="round" stroke-linejoin="round"/>
</svg>
