<svg width="24" height="24" viewBox="0 0 24 23" fill="none" xmlns="http://www.w3.org/2000/svg">
<path d="M12 0.642822L3.25 9.14272V21.2854C3.25 21.9561 3.80964 22.4997 4.5 22.4997H8.25C8.94036 22.4997 9.5 21.9561 9.5 21.2854V16.4284C9.5 15.7577 10.0596 15.2141 10.75 15.2141H13.25C13.9404 15.2141 14.5 15.7577 14.5 16.4284V21.2854C14.5 21.9561 15.0596 22.4997 15.75 22.4997H19.5C20.1904 22.4997 20.75 21.9561 20.75 21.2854V9.14272L12 0.642822Z" fill="#FFDE71"/>
<path d="M0.75 11.5713L3.25 9.14272M3.25 9.14272L12 0.642822L20.75 9.14272M3.25 9.14272V21.2854C3.25 21.9561 3.80964 22.4997 4.5 22.4997H8.25M20.75 9.14272L23.25 11.5713M20.75 9.14272V21.2854C20.75 21.9561 20.1904 22.4997 19.5 22.4997H15.75M8.25 22.4997C8.94036 22.4997 9.5 21.9561 9.5 21.2854V16.4284C9.5 15.7577 10.0596 15.2141 10.75 15.2141H13.25C13.9404 15.2141 14.5 15.7577 14.5 16.4284V21.2854C14.5 21.9561 15.0596 22.4997 15.75 22.4997M8.25 22.4997H15.75" stroke="black" stroke-linecap="round" stroke-linejoin="round"/>
</svg>
