<svg width="24" height="24" viewBox="0 0 47 46" fill="none" xmlns="http://www.w3.org/2000/svg">
<path fill-rule="evenodd" clip-rule="evenodd" d="M9.3403 9.10191C9.3403 4.62735 13.0744 1 17.6806 1C19.8167 1 21.7653 1.78009 23.2408 3.063C24.7164 1.78009 26.6649 1 28.801 1C33.4072 1 37.1413 4.62735 37.1413 9.10191C37.1413 10.0488 36.9741 10.9578 36.6667 11.8025H39.9214C42.9922 11.8025 45.4816 14.2208 45.4816 17.2038C45.4816 20.1869 42.9922 22.6051 39.9214 22.6051H26.0209V19.9045C26.0209 18.4129 24.7762 17.2038 23.2408 17.2038C21.7054 17.2038 20.4607 18.4129 20.4607 19.9045V22.6051H6.5602C3.48939 22.6051 1 20.1869 1 17.2038C1 14.2208 3.48939 11.8025 6.5602 11.8025H9.81488C9.50754 10.9578 9.3403 10.0488 9.3403 9.10191ZM20.4607 11.8025V9.10191C20.4607 7.61039 19.216 6.40127 17.6806 6.40127C16.1452 6.40127 14.9005 7.61039 14.9005 9.10191C14.9005 10.5934 16.1452 11.8025 17.6806 11.8025H20.4607ZM28.801 11.8025C30.3364 11.8025 31.5811 10.5934 31.5811 9.10191C31.5811 7.61039 30.3364 6.40127 28.801 6.40127C27.2656 6.40127 26.0209 7.61039 26.0209 9.10191V11.8025H28.801Z" fill="#FFDE71"/>
<path d="M20.4607 25.3057H3.7801V38.8089C3.7801 41.792 6.26949 44.2102 9.3403 44.2102H20.4607V25.3057Z" fill="#FFDE71"/>
<path d="M26.0209 44.2102H37.1413C40.2121 44.2102 42.7015 41.792 42.7015 38.8089V25.3057H26.0209V44.2102Z" fill="#FFDE71"/>
<path fill-rule="evenodd" clip-rule="evenodd" d="M9.3403 9.10191C9.3403 4.62735 13.0744 1 17.6806 1C19.8167 1 21.7653 1.78009 23.2408 3.063C24.7164 1.78009 26.6649 1 28.801 1C33.4072 1 37.1413 4.62735 37.1413 9.10191C37.1413 10.0488 36.9741 10.9578 36.6667 11.8025H39.9214C42.9922 11.8025 45.4816 14.2208 45.4816 17.2038C45.4816 20.1869 42.9922 22.6051 39.9214 22.6051H26.0209V19.9045C26.0209 18.4129 24.7762 17.2038 23.2408 17.2038C21.7054 17.2038 20.4607 18.4129 20.4607 19.9045V22.6051H6.5602C3.48939 22.6051 1 20.1869 1 17.2038C1 14.2208 3.48939 11.8025 6.5602 11.8025H9.81488C9.50754 10.9578 9.3403 10.0488 9.3403 9.10191ZM20.4607 11.8025V9.10191C20.4607 7.61039 19.216 6.40127 17.6806 6.40127C16.1452 6.40127 14.9005 7.61039 14.9005 9.10191C14.9005 10.5934 16.1452 11.8025 17.6806 11.8025H20.4607ZM28.801 11.8025C30.3364 11.8025 31.5811 10.5934 31.5811 9.10191C31.5811 7.61039 30.3364 6.40127 28.801 6.40127C27.2656 6.40127 26.0209 7.61039 26.0209 9.10191V11.8025H28.801Z" stroke="#111827" stroke-width="2"/>
<path d="M20.4607 25.3057H3.7801V38.8089C3.7801 41.792 6.26949 44.2102 9.3403 44.2102H20.4607V25.3057Z" stroke="#111827" stroke-width="2"/>
<path d="M26.0209 44.2102H37.1413C40.2121 44.2102 42.7015 41.792 42.7015 38.8089V25.3057H26.0209V44.2102Z" stroke="#111827" stroke-width="2"/>
</svg>
