<svg width="24" height="24" viewBox="0 0 18 21" fill="none" xmlns="http://www.w3.org/2000/svg">
<path d="M5.74996 3.26196H3.58329C2.38668 3.26196 1.41663 4.20429 1.41663 5.3667V17.9951C1.41663 19.1575 2.38668 20.0999 3.58329 20.0999H14.4166C15.6132 20.0999 16.5833 19.1575 16.5833 17.9951V5.3667C16.5833 4.20429 15.6132 3.26196 14.4166 3.26196H12.25M5.74996 3.26196C5.74996 4.42438 6.72001 5.3667 7.91663 5.3667H10.0833C11.2799 5.3667 12.25 4.42438 12.25 3.26196M5.74996 3.26196C5.74996 2.09955 6.72001 1.15723 7.91663 1.15723H10.0833C11.2799 1.15723 12.25 2.09955 12.25 3.26196M8.99996 10.6285H12.25M8.99996 14.838H12.25M5.74996 10.6285H5.76079M5.74996 14.838H5.76079" stroke="#111827" stroke-linecap="round"/>
</svg>
