<svg width="40" height="39" viewBox="0 0 40 39" fill="none" xmlns="http://www.w3.org/2000/svg">
<path d="M20.0001 3.88568C13.3726 3.88568 8.00006 9.1047 8.00006 15.5427V22.5093L6.58584 23.8831C6.01385 24.4387 5.84274 25.2744 6.1523 26.0003C6.46186 26.7263 7.19113 27.1997 8.00006 27.1997H32.0001C32.809 27.1997 33.5383 26.7263 33.8478 26.0003C34.1574 25.2744 33.9863 24.4387 33.4143 23.8831L32.0001 22.5093V15.5427C32.0001 9.1047 26.6275 3.88568 20.0001 3.88568Z" fill="#111827"/>
<path d="M20 34.971C16.6863 34.971 14 32.3615 14 29.1425H26C26 32.3615 23.3137 34.971 20 34.971Z" fill="#111827"/>
</svg>
