<svg width="40" height="26" viewBox="0 0 40 26" fill="none" xmlns="http://www.w3.org/2000/svg">
<path d="M22.2661 0.68088C22.8019 0.244913 23.5285 0 24.2861 0C25.0437 0 25.7703 0.244913 26.3061 0.68088L39.1635 11.1457C39.6991 11.5818 40 12.1732 40 12.7899C40 13.4065 39.6991 13.9979 39.1635 14.434L26.3061 24.8988C25.7672 25.3224 25.0455 25.5568 24.2964 25.5515C23.5472 25.5462 22.8306 25.3017 22.3009 24.8705C21.7711 24.4393 21.4706 23.8561 21.4641 23.2463C21.4576 22.6366 21.7456 22.0491 22.2661 21.6105L30.0005 15.1154H2.85719C2.09941 15.1154 1.37268 14.8704 0.836851 14.4342C0.301024 13.9981 0 13.4066 0 12.7899C0 12.1731 0.301024 11.5816 0.836851 11.1455C1.37268 10.7093 2.09941 10.4643 2.85719 10.4643H30.0005L22.2661 3.96916C21.7304 3.53306 21.4295 2.94167 21.4295 2.32502C21.4295 1.70838 21.7304 1.11698 22.2661 0.68088Z" fill="black"/>
</svg>
