<svg width="24" height="24" viewBox="0 0 56 55" fill="none" xmlns="http://www.w3.org/2000/svg">
<path fill-rule="evenodd" clip-rule="evenodd" d="M27.801 48.6116C40.0842 48.6116 50.0418 38.9386 50.0418 27.0065C50.0418 15.0743 40.0842 5.40137 27.801 5.40137C15.5177 5.40137 5.56018 15.0743 5.56018 27.0065C5.56018 38.9386 15.5177 48.6116 27.801 48.6116ZM38.1071 25.0968L29.7668 16.9949C28.6811 15.9402 26.9209 15.9402 25.8352 16.9949C24.7495 18.0496 24.7495 19.7595 25.8352 20.8142L29.4295 24.3058L19.4607 24.3058C17.9253 24.3058 16.6806 25.5149 16.6806 27.0065C16.6806 28.498 17.9253 29.7071 19.4607 29.7071H29.4295L25.8352 33.1987C24.7495 34.2534 24.7495 35.9633 25.8352 37.018C26.9209 38.0727 28.6811 38.0727 29.7668 37.018L38.1071 28.9161C39.1928 27.8614 39.1928 26.1515 38.1071 25.0968Z" fill="black"/>
</svg>
