<svg width="24" height="24" viewBox="0 0 40 39" fill="none" xmlns="http://www.w3.org/2000/svg">
<path fill-rule="evenodd" clip-rule="evenodd" d="M22.9784 6.16113C22.2204 3.12761 17.7796 3.12761 17.0216 6.16112C16.5319 8.12074 14.2209 9.05069 12.4483 8.00143C9.70436 6.37715 6.56425 9.42777 8.23618 12.0935C9.31622 13.8156 8.35899 16.0607 6.34188 16.5364C3.21937 17.2729 3.21937 21.5871 6.34188 22.3235C8.35899 22.7993 9.31622 25.0444 8.23618 26.7664C6.56425 29.4322 9.70436 32.4828 12.4483 30.8585C14.2209 29.8093 16.5319 30.7392 17.0216 32.6988C17.7796 35.7324 22.2204 35.7324 22.9784 32.6988C23.4681 30.7392 25.7791 29.8093 27.5517 30.8585C30.2956 32.4828 33.4358 29.4322 31.7638 26.7664C30.6838 25.0444 31.641 22.7993 33.6581 22.3235C36.7806 21.5871 36.7806 17.2729 33.6581 16.5364C31.641 16.0607 30.6838 13.8156 31.7638 12.0935C33.4358 9.42777 30.2956 6.37715 27.5517 8.00143C25.7791 9.0507 23.4681 8.12074 22.9784 6.16113ZM20 25.259C23.3137 25.259 26 22.6493 26 19.43C26 16.2107 23.3137 13.601 20 13.601C16.6863 13.601 14 16.2107 14 19.43C14 22.6493 16.6863 25.259 20 25.259Z" fill="#111827"/>
</svg>
