<svg width="30" height="30" viewBox="0 0 30 30" fill="none" xmlns="http://www.w3.org/2000/svg">
<path d="M28.1555 21.8085L17.9074 4.0112C17.6106 3.50355 17.186 3.08248 16.676 2.78985C16.1659 2.49723 15.5881 2.34326 15 2.34326C14.412 2.34326 13.8342 2.49723 13.3241 2.78985C12.814 3.08248 12.3894 3.50355 12.0926 4.0112L1.84454 21.8085C1.55652 22.3011 1.40472 22.8615 1.40472 23.4321C1.40472 24.0027 1.55652 24.5631 1.84454 25.0557C2.13809 25.5659 2.56207 25.9888 3.073 26.281C3.58393 26.5732 4.1634 26.7243 4.75197 26.7186H25.2481C25.8362 26.7239 26.4152 26.5726 26.9257 26.2804C27.4362 25.9882 27.8598 25.5656 28.1531 25.0557C28.4415 24.5633 28.5937 24.0031 28.5941 23.4324C28.5945 22.8618 28.4431 22.3013 28.1555 21.8085ZM25.718 23.6483C25.6703 23.7295 25.6016 23.7964 25.5191 23.8417C25.4366 23.8871 25.3433 23.9094 25.2492 23.9061H4.75197C4.65785 23.9094 4.56462 23.8871 4.48211 23.8417C4.39959 23.7964 4.33088 23.7295 4.28322 23.6483C4.24279 23.5826 4.22139 23.5069 4.22139 23.4298C4.22139 23.3526 4.24279 23.2769 4.28322 23.2112L14.5313 5.41393C14.582 5.33582 14.6515 5.27163 14.7333 5.22719C14.8152 5.18275 14.9069 5.15948 15 5.15948C15.0932 5.15948 15.1848 5.18275 15.2667 5.22719C15.3486 5.27163 15.418 5.33582 15.4688 5.41393L25.7156 23.2112C25.7564 23.2767 25.7782 23.3523 25.7786 23.4294C25.7791 23.5066 25.7581 23.5824 25.718 23.6483ZM13.5938 15.9374V12.1874C13.5938 11.8144 13.7419 11.4567 14.0056 11.193C14.2694 10.9293 14.6271 10.7811 15 10.7811C15.373 10.7811 15.7307 10.9293 15.9944 11.193C16.2581 11.4567 16.4063 11.8144 16.4063 12.1874V15.9374C16.4063 16.3103 16.2581 16.668 15.9944 16.9317C15.7307 17.1955 15.373 17.3436 15 17.3436C14.6271 17.3436 14.2694 17.1955 14.0056 16.9317C13.7419 16.668 13.5938 16.3103 13.5938 15.9374ZM16.875 20.6249C16.875 20.9957 16.765 21.3582 16.559 21.6666C16.353 21.9749 16.0602 22.2152 15.7175 22.3571C15.3749 22.4991 14.9979 22.5362 14.6342 22.4638C14.2705 22.3915 13.9364 22.2129 13.6742 21.9507C13.412 21.6885 13.2334 21.3544 13.161 20.9907C13.0887 20.6269 13.1258 20.2499 13.2677 19.9073C13.4097 19.5647 13.65 19.2719 13.9583 19.0659C14.2667 18.8598 14.6292 18.7499 15 18.7499C15.4973 18.7499 15.9742 18.9474 16.3258 19.299C16.6775 19.6507 16.875 20.1276 16.875 20.6249Z" fill="#FD6E20"/>
</svg>
