<svg width="111" height="111" viewBox="0 0 111 111" fill="none" xmlns="http://www.w3.org/2000/svg">
<path fill-rule="evenodd" clip-rule="evenodd" d="M55.5001 99.9C80.0215 99.9 99.9001 80.0215 99.9001 55.5C99.9001 30.9786 80.0215 11.1 55.5001 11.1C30.9787 11.1 11.1001 30.9786 11.1001 55.5C11.1001 80.0215 30.9787 99.9 55.5001 99.9ZM76.0745 48.3244C78.242 46.157 78.242 42.643 76.0745 40.4756C73.9071 38.3082 70.3931 38.3082 68.2257 40.4756L49.9501 58.7511L42.7745 51.5756C40.6071 49.4082 37.0931 49.4082 34.9257 51.5756C32.7582 53.743 32.7582 57.257 34.9257 59.4244L46.0257 70.5244C48.1931 72.6919 51.7071 72.6919 53.8745 70.5244L76.0745 48.3244Z" fill="#375AFF"/>
</svg>
